<svg xmlns:inkscape="http://www.inkscape.org/namespaces/inkscape" xmlns:rdf="http://www.w3.org/1999/02/22-rdf-syntax-ns#" xmlns="http://www.w3.org/2000/svg" sodipodi:docname="hsts.svg" height="42mm" width="127mm" version="1.1" xmlns:cc="http://creativecommons.org/ns#" xmlns:dc="http://purl.org/dc/elements/1.1/" inkscape:version="0.91 r13725" viewBox="0 0 449.99976 148.81884" xmlns:sodipodi="http://sodipodi.sourceforge.net/DTD/sodipodi-0.dtd">
 <sodipodi:namedview id="base" bordercolor="#666666" inkscape:pageshadow="2" inkscape:window-y="0" pagecolor="#ffffff" inkscape:window-height="1001" inkscape:window-maximized="1" inkscape:zoom="0.35" inkscape:window-x="0" showgrid="false" borderopacity="1.0" inkscape:current-layer="text3344" inkscape:cx="-103.57143" inkscape:cy="520" inkscape:window-width="1680" inkscape:pageopacity="0.0" inkscape:document-units="px"/>
 <g inkscape:label="Layer 1" inkscape:groupmode="layer" transform="translate(0 -903.54)">
  <flowRoot font-size="180px" xml:space="preserve" style="word-spacing:0px;letter-spacing:0px" line-height="122.00000286%" font-family="sans-serif" fill="#000000"><flowRegion><rect y="132.36" width="391.43" x="51.429" height="225.71"/></flowRegion><flowPara>HstsHH</flowPara></flowRoot>
  <g>
   <path style="" d="m3.3802 912.57h17.754v53.789h64.512v-53.789h17.754v131.22h-17.754v-62.49h-64.512v62.49h-17.754v-131.22z"/>
   <path style="" d="m217.39 916.88v17.314q-10.107-4.834-19.072-7.207-8.9648-2.373-17.314-2.373-14.502 0-22.412 5.625-7.8223 5.625-7.8223 15.996 0 8.7012 5.1855 13.184 5.2734 4.3945 19.863 7.1191l10.723 2.1973q19.863 3.7793 29.268 13.359 9.4922 9.4922 9.4922 25.488 0 19.072-12.832 28.916-12.744 9.8438-37.441 9.8438-9.3164 0-19.863-2.1094-10.459-2.1094-21.709-6.2402v-18.281q10.811 6.0645 21.182 9.1407 10.371 3.0761 20.391 3.0761 15.205 0 23.467-5.9765 8.2617-5.9766 8.2617-17.051 0-9.668-5.9766-15.117-5.8887-5.4492-19.424-8.1738l-10.811-2.1094q-19.863-3.9551-28.74-12.393-8.877-8.4375-8.877-23.467 0-17.402 12.217-27.422 12.305-10.02 33.838-10.02 9.2285 0 18.809 1.6699 9.5801 1.6699 19.6 5.0098z"/>
   <path style="" d="m234.8 912.57h111.01v14.941h-46.582v116.28h-17.842v-116.28h-46.582v-14.941z"/>
   <path style="" d="m441.69 916.88v17.314q-10.107-4.834-19.072-7.207-8.9648-2.373-17.314-2.373-14.502 0-22.412 5.625-7.8223 5.625-7.8223 15.996 0 8.7012 5.1856 13.184 5.2734 4.3945 19.863 7.1191l10.723 2.1973q19.863 3.7793 29.268 13.359 9.4922 9.4922 9.4922 25.488 0 19.072-12.832 28.916-12.744 9.8438-37.441 9.8438-9.3164 0-19.863-2.1094-10.459-2.1094-21.709-6.2402v-18.281q10.811 6.0645 21.182 9.1407 10.371 3.0761 20.391 3.0761 15.205 0 23.467-5.9765 8.2617-5.9766 8.2617-17.051 0-9.668-5.9766-15.117-5.8887-5.4492-19.424-8.1738l-10.82-2.1q-19.863-3.9551-28.74-12.393-8.877-8.4375-8.877-23.467 0-17.402 12.217-27.422 12.305-10.02 33.838-10.02 9.2285 0 18.809 1.6699 9.5801 1.6699 19.6 5.0098z"/>
  </g>
 </g>
</svg>
