<?xml version="1.0" encoding="UTF-8" standalone="no"?>
<svg id="Layer_1" xmlns:rdf="http://www.w3.org/1999/02/22-rdf-syntax-ns#" xmlns="http://www.w3.org/2000/svg" xml:space="preserve" viewBox="0 0 1500 425.84746" height="150" width="500" version="1.1" y="0px" x="0px" xmlns:cc="http://creativecommons.org/ns#" xmlns:dc="http://purl.org/dc/elements/1.1/"><metadata id="metadata4396"><rdf:RDF><cc:Work rdf:about=""><dc:format>image/svg+xml</dc:format><dc:type rdf:resource="http://purl.org/dc/dcmitype/StillImage"/><dc:title/></cc:Work></rdf:RDF></metadata><style id="style4370" type="text/css">
  .st0{fill:#01B3E3;}
  .st1{fill:#2D3C49;}
</style><g id="layer1" transform="matrix(.99996 0 0 1.0733 -6.6733 -650.69)"><path id="rect3352" stroke-linejoin="bevel" d="m6.9465 598.29h359.96v426.38h-359.96z" fill-rule="evenodd" stroke-dashoffset=".35070" stroke="#0f0" stroke-linecap="square" stroke-width=".32283" fill="#f00"/></g><g id="g4374" transform="matrix(.99115 0 0 1 -3.4431 23.019)"><g id="flowRoot3470" fill="#fff" transform="matrix(2.3145 -.3444 .32647 2.8341 -86.408 -178)"><path id="path4525" d="m39.273 92.442q0-4.14 3.06-7.38 3.06-3.42 10.98-3.42h41.94q15.12 0 23.76 7.38 8.82 7.2 8.82 19.98 0 13.86-10.62 25.56-7.56 8.64-16.74 12.42-9.18 3.6-23.4 3.6h-17.64l-3.78 18h17.64q5.22 0 7.74 1.44 2.52 1.26 2.52 5.58 0 4.14-3.24 7.56t-10.8 3.42h-38.34q-5.58 0-7.92-1.62-2.34-1.8-2.34-5.58 0-4.14 3.24-7.38 3.24-3.42 10.8-3.42h2.7l14.58-68.94h-2.7q-5.58 0-7.92-1.62t-2.34-5.58zm30.96 7.2-7.02 32.94h21.24q10.62 0 17.28-5.76t6.66-14.76q0-5.76-4.5-9-4.5-3.42-12.42-3.42h-21.24z"/></g><g id="text3490" fill="#fff" transform="matrix(.73882 .072724 -.13195 1.3405 0 0)"><path id="path4528" d="m482.15 205.27q0 8.2025-6.4193 14.978-6.4193 6.4193-21.398 6.4193h-42.082q-11.056 0-15.692-3.2097-4.6362-3.2097-4.6362-11.056 0-8.9158 8.9158-16.762l-29.957-32.453-7.4892 4.9928-12.125 58.487h-41.726q-10.699 0-15.335-3.2097-4.6362-3.2097-4.6362-11.056 0-8.2025 6.4193-14.622 6.4193-6.776 21.398-6.776h5.7061l32.097-151.21h-5.7061q-11.056 0-15.692-2.853-4.6362-3.2097-4.6362-11.056 0-8.5591 6.0627-14.978 6.0627-6.776 21.754-6.776h41.369l-25.677 120.18 32.81-22.468q-2.853-5.3495-2.853-9.2724 0-8.9158 6.4193-15.335 6.4193-6.4193 21.398-6.4193h39.943q11.056 0 15.692 3.2097 4.6362 3.2097 4.6362 10.699 0 8.5591-6.4193 15.335-6.4193 6.4193-21.398 6.4193h-9.629l-49.572 34.236 46.362 50.285h11.769q9.9856 0 14.978 2.853 5.3494 2.4964 5.3494 11.412z"/></g><g id="flowRoot3650" class="st1" fill="#2d3c49" transform="matrix(1.1429,0,0,1.9744,-68.303,-55.617)"><path id="path3731" d="m382.67 169.59-8.3545 8.5232h14.264c55.425 0 56.036 0 72.949-8.3153l0.40754-1.871c-11.411 1.2473-16.301 1.4552-34.233 1.6631 0.6113-2.7025 1.2226-5.405 1.8339-7.8996 0.81507-3.534 1.6301-7.068 2.649-12.265 2.649-11.226 2.8528-12.473 5.0942-20.996 13.449-0.83153 24.656-4.1577 37.086-11.018 14.671-8.1074 23.841-22.659 23.841-38.043 0-14.136-11.411-20.996-34.844-20.996-2.0377 0-4.2791 0-8.9658 0.20788l1.2226-5.1971-13.652 7.068c-16.098 1.6631-25.267 4.5734-35.252 10.602-16.098 9.9784-24.86 24.114-24.86 40.537 0 6.0286 0.81507 10.186 3.4641 16.839l15.283-9.3547c-2.4452-7.2759-3.0565-10.602-3.0565-15.591 0-11.018 4.6867-21.62 12.226-27.648 6.9281-5.405 13.856-7.8996 27.305-9.3547-7.1319 32.638-17.524 75.669-25.267 103.11h-29.139zm70.1-104.78c3.0565-0.20788 6.3168-0.41577 7.9469-0.41577 12.837 0 19.765 6.4444 19.765 18.502 0 22.036-14.468 38.251-34.029 38.251-2.2414 0-3.8716-0.20788-7.1319-0.83153l13.449-55.505z"/><path id="path3733" d="m467.51 174.39c4.14 1.26 6.3 1.62 9.54 1.62 12.24 0 20.52-6.3 44.28-33.48 14.22 0 24.84 0.18 31.86 0.72-0.36 2.16-0.72 4.32-0.9 6.48-0.36 2.34-0.9 5.76-1.44 9.54-0.36 3.42-0.9 6.84-1.08 7.38-0.54 3.06-0.9 5.94-0.9 7.74 0 2.16 1.8 3.96 4.14 3.96 1.26 0 3.06-0.18 5.22-0.72 8.64-1.62 17.28-3.24 25.92-4.68l2.88-4.32c-1.8 0.18-3.6 0.36-4.14 0.36-5.58 0.54-6.48 0.54-9.18 0.54-7.02 0-9.18-1.8-9.18-8.1 0-11.34 7.2-62.46 12.78-90.54l-2.52-1.8c-0.72 0.72-1.44 1.44-1.98 2.16-2.88 2.88-4.5 3.6-7.56 3.6-2.16 0-2.88 0-10.26-1.26-8.28-1.26-12.78-1.8-16.38-1.8-8.28 0-16.92 4.14-25.38 12.42-9.54 9.18-13.68 17.28-13.68 26.82 0 4.14 0.54 7.02 2.52 12.24l13.32-7.2c-2.88-8.46-3.78-12.6-3.78-16.74 0-10.26 7.74-16.38 20.88-16.38 1.98 0 4.14 0.18 6.66 0.36l7.2 0.9 2.7 0.18c3.06 0.36 4.5 0.36 9.36 0.72l-31.14 40.32c-7.56 9.72-19.44 23.58-24.12 28.08-7.2 7.02-12.6 9.54-20.88 9.54-3.06 0-4.68-0.18-7.92-1.26l-6.84 12.6zm59.4-39.24 34.74-45.54-7.38 45.54h-27.36z"/><path id="path3735" d="m581.66 198.43c10.954 0.23948 10.954 0.23948 12.194 0.23948 10.747 0 29.348-0.47897 35.548-0.95795l15.294-9.1005c-7.647-0.23949-9.507-0.23949-27.281-0.71847 23.354-27.062 24.594-29.218 31.208-59.632 0.20667-0.2395 0.41334-0.2395 0.41334-0.2395 2.2734-0.23948 3.5135 1.9159 4.7535 7.9031 7.8536 39.994 14.674 62.746 23.148 77.355 8.887 15.327 21.081 22.751 37.408 22.751 11.574 0 18.601-2.8738 30.174-12.693l-10.127-14.609c-6.6136 14.13-12.4 19.638-20.461 19.638-9.7137 0-19.014-11.974-27.488-35.684-5.3735-14.848-11.78-37.121-20.254-68.254 11.78-4.3108 16.534-6.9451 22.941-11.735 9.7137-7.6636 15.294-18.68 15.294-30.175 0-14.848-10.334-22.991-29.141-22.991-2.4801 0-7.647 0.23949-11.987 0.47898l1.6534-7.6636-18.807 10.298c-33.895 6.7057-51.875 24.907-51.875 52.927 0 6.2267 0.62002 10.298 2.8934 19.159l17.361-10.298c-1.6534-8.1426-2.2734-12.214-2.2734-17.722 0-11.495 3.1001-20.596 9.507-27.541 5.7869-5.9872 11.574-8.6216 24.801-10.537l-1.8601 8.6216c-0.8267 3.8318-2.0667 9.34-3.5135 16.764l-10.334 47.419c-8.6803 40.473-14.261 46.7-41.128 46.461l-8.0603 10.537zm80.19-131.72h6.4069c12.814 0 18.187 5.5082 18.187 18.68 0 11.974-5.5802 23.47-14.261 29.696-6.2002 4.3108-11.16 5.9872-22.321 7.6636l11.987-56.04z"/><path id="path3737" d="m761.23 123.27 11.52-46.26 28.8 0.72c2.34-1.98 7.56-5.94 11.34-8.28 0.9-2.16 1.08-2.52 1.8-5.04-7.56 4.68-13.86 6.3-23.94 6.3l-24.12-0.18c-19.44 0-30.78 2.88-40.68 9.9-10.08 7.38-16.2 19.98-16.2 33.12 0 4.32 0.54 7.38 2.34 13.86l15.12-6.84c-2.88-8.46-3.6-12.42-3.6-17.82 0-16.2 10.62-26.28 27.36-26.28 2.16 0 5.22 0.18 8.64 0.54l-11.52 46.26-6.48 8.28h4.5l-4.86 19.26c-7.2 28.8-11.52 33.84-28.62 33.84-2.34 0-5.4-0.18-12.06-0.36l-7.02 11.7c3.78 0.36 7.02 0.54 9 0.54 10.8 0 18.54-3.42 30.42-13.14 13.14-10.62 17.82-18.36 22.14-35.46l4.32-17.28c10.26-0.54 18.72-1.08 19.26-1.26 5.04-0.72 6.48-1.62 10.98-6.12h-28.44z"/><path id="path3739" d="m852.32 120.75 10.26-40.86h5.58c7.56-0.36 13.14-0.54 14.22-0.54 7.02 0 8.28 1.26 13.14 13.14l11.88-11.88c-0.54-3.96-1.98-5.94-5.04-7.02l-38.52 0.72 1.08-3.78-12.6 3.78c-17.28 0.18-28.26 3.6-38.52 11.7-9 7.2-12.96 14.4-12.96 23.76 0 4.68 0.72 8.28 3.24 14.58l12.96-8.64c-1.62-5.76-2.34-10.44-2.34-14.94 0-14.04 10.08-19.8 34.56-20.52l-10.08 40.5c-3.06 3.06-3.96 4.14-7.02 7.74h5.04c-0.72 2.7-1.26 5.04-1.98 7.2-6.84 27.72-8.82 30.78-23.58 34.38l-6.84 5.94c5.04 0.18 8.82 0.18 10.08 0.18l16.2 0.18c5.4 0 10.26 0.18 14.4 0.36 21.78 0.72 21.96 0.72 29.7 0.72 9.36 0 11.88-1.08 19.98-8.46 8.28-7.38 11.34-11.7 11.34-15.84 0-0.9-0.18-2.34-0.72-4.14l-13.68 5.04c0.54 3.78 0.72 5.22 0.72 6.84 0 6.84-2.34 7.74-19.62 7.74h-46.8c17.46-16.02 17.64-16.38 24.12-41.04 9.18-0.54 10.26-0.54 14.58-0.9 3.96-0.18 6.66-0.36 7.74-0.36 0.72-0.18 2.7-0.18 4.86-0.36 3.24-2.34 3.6-2.7 6.84-5.22h-32.22z"/><path id="path3741" d="m905.81 169.51c4.86 0.43966 7.38 0.6595 9.9 0.6595 7.74 0 12.6-1.319 17.28-4.8363 8.82-6.3752 17.82-22.203 23.58-40.669 2.88-9.4528 3.96-14.289 11.7-52.32l6.66 34.074c5.22 27.259 9.54 43.307 15.66 58.256 10.98 27.259 26.82 40.669 48.06 40.669 9.18 0 15.66-1.9785 23.76-7.6942l-4.32-19.565c-2.52 7.2545-3.78 10.332-6.12 13.63-3.24 4.8363-7.74 7.6942-12.24 7.6942-11.34 0-21.78-10.772-30.96-32.096 3.06-18.906 4.68-27.479 9.18-50.562 7.74-38.251 11.7-54.079 17.46-68.588 3.78-9.233 8.1-12.75 16.38-12.75 1.26 0 2.34 0 4.86 0.43967l6.66-14.729c-2.16-0.21983-4.14-0.43967-5.58-0.43967-7.56 0-15.66 6.3752-25.02 19.785-8.64 12.311-11.88 23.522-20.7 71.006-1.8 10.332-3.78 20.664-5.76 31.216-0.18 1.0992-1.08 5.7157-2.7 12.53-8.64-21.104-10.98-29.677-30.06-116.73l-6.12 6.8148c-4.32-0.43967-6.66-0.6595-9.9-0.6595-10.8 0-17.28 2.4182-23.76 8.5735-11.52 10.992-19.44 26.82-19.44 38.91 0 5.4958 1.26 11.211 4.5 19.345l12.42-10.332c-4.5-11.651-5.76-16.707-5.76-22.203 0-6.595 3.06-12.53 8.1-15.828 4.32-2.8578 8.64-3.7372 16.74-3.7372 3.78 0 7.02 0 13.86 0.43967-8.46 44.186-15.3 71.885-21.24 84.856-3.78 8.1338-7.74 10.552-17.28 10.552-3.42 0-6.12-0.21983-11.16-0.87933l-8.64 15.168z"/><path id="path3743" d="m1112.1 69.628c-14.94 0-34.02 7.56-46.44 18.18-14.4 12.6-22.5 32.58-22.5 55.26 0 23.04 10.62 35.28 30.6 35.28 16.38 0 34.38-7.74 47.88-20.7 12.96-12.6 20.16-31.32 20.16-52.92 0-22.68-10.44-35.1-29.7-35.1zm-10.44 7.02c16.02 0 25.38 12.6 25.38 33.48 0 13.68-3.78 29.16-9.54 39.42-7.74 13.68-19.98 21.6-33.3 21.6-16.56 0-26.28-12.96-26.28-35.1 0-33.3 19.26-59.4 43.74-59.4z"/><path id="path3745" d="m1208.7 78.988c4.32-1.98 5.4-2.7 8.1-4.86-8.64-0.9-12.78-1.26-18.36-1.26-14.04 0-22.86 2.7-31.68 9.36-9.9 7.56-15.66 18.36-15.66 28.98 0 4.68 0.9 8.1 3.24 13.86l13.68-7.56c-2.34-6.12-3.06-9.36-3.06-14.4 0-13.86 9.18-23.76 21.96-23.76 2.16 0 4.68 0.18 7.74 0.54-4.68 36.36-11.7 83.88-14.58 98.28 5.04-0.9 5.76-1.08 13.32-2.88 6.48-7.38 7.74-8.64 19.44-20.88 28.08-28.8 42.48-44.64 50.04-54.72 10.08-13.68 15.12-25.56 15.12-35.46 0-3.24-0.36-4.86-1.62-8.46-3.6-2.16-5.04-2.7-9.36-3.06-4.86 2.16-6.84 3.6-10.98 7.2 4.68 3.96 6.3 7.56 6.3 13.68 0 9.54-6.12 22.86-16.38 36.36-9.72 12.6-16.92 20.16-49.32 51.66l12.06-82.62z"/><path id="path3747" d="m1251.8 174.39c4.14 1.26 6.3 1.62 9.54 1.62 12.24 0 20.52-6.3 44.28-33.48 14.22 0 24.84 0.18 31.86 0.72-0.36 2.16-0.72 4.32-0.9 6.48-0.36 2.34-0.9 5.76-1.44 9.54-0.36 3.42-0.9 6.84-1.08 7.38-0.54 3.06-0.9 5.94-0.9 7.74 0 2.16 1.8 3.96 4.14 3.96 1.26 0 3.06-0.18 5.22-0.72 8.64-1.62 17.28-3.24 25.92-4.68l2.88-4.32c-1.8 0.18-3.6 0.36-4.14 0.36-5.58 0.54-6.48 0.54-9.18 0.54-7.02 0-9.18-1.8-9.18-8.1 0-11.34 7.2-62.46 12.78-90.54l-2.52-1.8c-0.72 0.72-1.44 1.44-1.98 2.16-2.88 2.88-4.5 3.6-7.56 3.6-2.16 0-2.88 0-10.26-1.26-8.28-1.26-12.78-1.8-16.38-1.8-8.28 0-16.92 4.14-25.38 12.42-9.54 9.18-13.68 17.28-13.68 26.82 0 4.14 0.54 7.02 2.52 12.24l13.32-7.2c-2.88-8.46-3.78-12.6-3.78-16.74 0-10.26 7.74-16.38 20.88-16.38 1.98 0 4.14 0.18 6.66 0.36l7.2 0.9 2.7 0.18c3.06 0.36 4.5 0.36 9.36 0.72l-31.14 40.32c-7.56 9.72-19.44 23.58-24.12 28.08-7.2 7.02-12.6 9.54-20.88 9.54-3.06 0-4.68-0.18-7.92-1.26l-6.84 12.6zm59.4-39.24 34.74-45.54-7.38 45.54h-27.36z"/></g></g></svg>
