<?xml version="1.0" encoding="UTF-8" standalone="no"?>
<svg id="svg4260" height="210mm" width="210mm" version="1.1" viewBox="0 0 744.09449 744.09437"> 
 <g id="layer1" fill-rule="evenodd" inkscape:label="Layer 1" inkscape:groupmode="layer" transform="translate(0 -308.27)">
  <path id="path4272" opacity=".5" stroke-linejoin="bevel" d="m511.43 552.36a100.71 115.71 0 0 1 -100.72 115.72 100.71 115.71 0 0 1 -100.71 -115.72 100.71 115.71 0 0 1 100.71 -115.71 100.71 115.71 0 0 1 100.72 115.71z" stroke-opacity=".42424" stroke-dashoffset=".35070" stroke="#000" stroke-linecap="square" stroke-width=".2" fill="#dfd20d"/>
  <path id="path4814" opacity=".5" stroke-linejoin="bevel" d="m528.52 854.51a129.95 189.24 0 0 1 -129.95 189.19 129.95 189.24 0 0 1 -129.95 -189.19 129.95 189.24 0 0 1 129.95 -189.24 129.95 189.24 0 0 1 129.95 189.24z" stroke-opacity=".42424" fill-opacity=".78788" stroke-dashoffset=".35070" stroke="#000" stroke-linecap="square" stroke-width=".29876" fill="#3bbf00"/>
  <g>
   <path id="path4816" opacity=".5" stroke-linejoin="bevel" d="m388.57 531.65a12.14 14.997 0 0 1 -12.14 14.997 12.14 14.997 0 0 1 -12.14 -14.997 12.14 14.997 0 0 1 12.14 -14.997 12.14 14.997 0 0 1 12.14 14.997z" stroke-opacity=".42424" stroke-dashoffset=".35070" stroke="#000" stroke-linecap="square" stroke-width=".20611" fill="#00f"/>
   <path id="path4818" opacity=".5" stroke-linejoin="bevel" d="m462.86 538.79a12.859 15.002 0 0 1 -12.86 15 12.859 15.002 0 0 1 -12.86 -15 12.859 15.002 0 0 1 12.86 -15 12.859 15.002 0 0 1 12.859 15.002z" stroke-opacity=".42424" stroke-dashoffset=".35070" stroke="#000" stroke-linecap="square" stroke-width=".19543" fill="#00f"/>
   <path id="path4822" d="m381.43 615.22c3.6657 3.3054 7.4348 6.5222 11.571 9.2157 3.9184 2.5517 8.21 4.6119 12.788 5.5647 4.9178 1.0236 10.077 0.67017 14.894-0.75408h0.00001c6.5475-1.9359 12.475-5.5808 17.89-9.7406" fill="#f00"/>
   <path id="path4863" d="m315.45 511.82l69.05-34.178 12.142 36.426 32.379-36.426 0.00001 0.00001 20.237 36.426 18.213-18.213c13.733 12.893 26.819 26.481 39.126 40.741 1.6968 1.9661 3.3781 3.946 5.0142 5.9629 0.52307 0.64485 1.042 1.2932 1.5464 1.9527 0.2927 0.38264 0.58769 0.76467 0.8465 1.171 0.0551 0.0865 0.1152 0.17228 0.14682 0.26989v0.00002c0.006 0.0172 0.0142 0.0389 0.002 0.0521-0.0113 0.0121-0.0317 0.002-0.0468-0.005-0.092-0.043-0.16604-0.1166-0.2422-0.18383l-0.00001-0.00001c-0.15367-0.13565-0.30001-0.27939-0.44509-0.42419-1.3696-1.367-2.6403-2.8293-3.9208-4.28 1.9593-1.3608 3.5686-3.2079 4.6978-5.3092 0-0.00001 0-0.00002 0.00001-0.00003 1.186-2.207 1.87-4.6593 2.2228-7.1398 0.83477-5.87-0.003-11.864-1.3595-17.636-1.4986-6.3776-3.732-12.569-6.3987-18.553-2.3457-5.2637-5.0144-10.396-8.1971-15.2-0.00001-0.00001-0.00001-0.00002-0.00002-0.00003-5.2487-7.9228-9.9793-16.215-15.868-23.675-0.00001-0.00001-0.00001-0.00002-0.00002-0.00003-5.5744-7.0612-12.629-12.917-20.558-17.167-7.9775-5.547-16.89-9.8247-26.342-12.077-7.3136-1.7431-14.915-2.2641-22.4-1.5484-5.5254 0.52835-10.984 1.719-16.247 3.4811-1.7291 0.57886-3.4363 1.2218-5.1257 1.908 0 0-0.00003 0.00001-0.00003 0.00001-0.56505 0.22953-1.1279 0.46446-1.6925 0.69511 0 0-0.00003 0.00001-0.00003 0.00001-0.35235 0.14394-0.7035 0.29264-1.0662 0.40794-10.315 1.6849-19.87 6.7737-27.856 13.516-0.00001 0.00001-0.00002 0.00002-0.00003 0.00002-7.2086 6.0857-13.267 13.393-19.281 20.662-0.00001 0.00001-0.00001 0.00002-0.00002 0.00003-9.4123 10.715-19.028 21.576-25.223 34.423-1.3046 2.7053-2.3982 5.5358-2.9266 8.4924-0.31968 1.7889-0.3613 3.6127-0.42773 5.4287z" fill="#deb887"/>
  </g>
 </g>
</svg>
